<svg xmlns="http://www.w3.org/2000/svg" xmlns:xlink="http://www.w3.org/1999/xlink" width="319.67" height="413.2" viewBox="0 0 319.67 413.2"><defs><clipPath id="a"><rect width="319.418" height="413.2" fill="#2484ba"/></clipPath></defs><g transform="translate(-298.588 -2236.399)"><rect width="319.418" height="413.2" transform="translate(298.588 2236.399)" fill="#ffc40a"/><g transform="translate(298.84 2236.399)" clip-path="url(#a)"><g transform="translate(-96.67 106.304)"><rect width="345.877" height="225.417" transform="translate(19.554 81.659)" fill="#4caf50"/><path d="M526.022,517.2,506.3,536.922H609.01l-19.168-19.168Z" transform="translate(-369.576 -230.678)" fill="#018351"/><path d="M402.1,554.3" transform="translate(-313.301 -247.225)" fill="none" stroke="#000" stroke-miterlimit="10" stroke-width="7"/><path d="M244.377,54.346V33.128L238.4,19.279V0H609.872V22.049l-7.333,11.8v20.5Z" transform="translate(-231.424)" fill="#4caf50"/><rect width="107.972" height="172.401" transform="translate(210.229 74.677)" fill="#2484ba"/><rect width="108.138" height="172.401" transform="translate(58.787 74.677)" fill="#2484ba"/><rect width="64.373" height="167.858" transform="translate(156.339 118.609)" fill="#84c0ab"/><rect width="36.508" height="91.186" transform="translate(170.27 135.671)" fill="#2484ba"/><rect width="10.526" height="26.647" transform="translate(204.513 184.09)" fill="#018351"/><path d="M488.254,378.538a10.213,10.213,0,0,1-6.7,2.247,9.461,9.461,0,0,1-5.651-2.247V165h12.354Z" transform="translate(-350.316 -73.593)" fill="#018351"/><path d="M713.854,378.538a10.213,10.213,0,0,1-6.7,2.247,9.464,9.464,0,0,1-5.651-2.247V165h12.355Z" transform="translate(-462.634 -73.593)" fill="#018351"/><rect width="64.373" height="36.951" transform="translate(156.339 81.659)" fill="#2484ba"/><line x2="356.791" y2="0.72" transform="translate(13.576 33.129)" fill="#3871b8" stroke="#018351" stroke-miterlimit="10" stroke-width="3"/><line x2="371.471" transform="translate(6.973 19.278)" fill="#3871b8" stroke="#018351" stroke-miterlimit="10" stroke-width="3"/><path d="M298.654,378.538a10.212,10.212,0,0,1-6.7,2.247,9.459,9.459,0,0,1-5.651-2.247V165h12.354Z" transform="translate(-252.785 -73.593)" fill="#018351"/><path d="M910.353,377.539a10.21,10.21,0,0,1-6.7,2.247A9.459,9.459,0,0,1,898,377.539V164h12.353Z" transform="translate(-563.868 -73.147)" fill="#018351"/><path d="M597.352,98.1l11.332,13.3v26.481H593.272l-7.1-7.645-7.152,7.645H563.4l-7.555-8.088-7.5,8.088H532.681l-7.656-8.254-7.4,7.922H501.958l-7.354-7.922-8.109,8.7H470.68l-7.3-7.867-7.555,8.088H440.159l-7.253-7.756-7.4,7.922h-16.52l-7.4-7.922-7.3,7.756H378.611l-7.5-8.088-7.354,7.867H347.988l-8.109-8.7-7.4,7.922H316.862l-7.4-7.922-7.706,8.254H286.139l-7.555-8.088-7.5,8.088H255.415l-7.1-7.645-7.1,7.645H225.8V111.4l11.332-13.3Z" transform="translate(-225.8 -43.753)" fill="#018351"/></g></g></g></svg>