<svg xmlns="http://www.w3.org/2000/svg" xmlns:xlink="http://www.w3.org/1999/xlink" width="319.419" height="413.2" viewBox="0 0 319.419 413.2">
  <defs>
    <clipPath id="clip-path">
      <rect id="Rectangle_963" data-name="Rectangle 963" width="319.419" height="413.2" fill="#4caf50"/>
    </clipPath>
  </defs>
  <g id="Group_3018" data-name="Group 3018" transform="translate(-633.771 -2236.399)">
    <rect id="Rectangle_924" data-name="Rectangle 924" width="319.419" height="413.2" transform="translate(633.771 2236.399)" fill="#4caf50"/>
    <g id="Mask_Group_298" data-name="Mask Group 298" transform="translate(633.771 2236.399)" clip-path="url(#clip-path)">
      <g id="Group_2381" data-name="Group 2381" transform="translate(13.674 163.434)">
        <path id="Path_2467" data-name="Path 2467" d="M-405.912,1860.047l11.734-29.478,26.224-60.074,10.271-6.952,75.053-6.408,76.47,6.408,11.622,6.952,27.978,60.074,13.438,29.478-47.546,15.641H-355.219Z" transform="translate(426.588 -1757.134)" fill="#fac917"/>
        <path id="Path_2462" data-name="Path 2462" d="M-415.864,1915.2l53.324,11.172h182.3L-129.6,1915.2v-64.746l-50.641,12.974h-182.3l-53.324-12.974Z" transform="translate(421.161 -1706.242)" fill="#fac917" stroke="#4caf50" stroke-width="3"/>
        <path id="Path_2463" data-name="Path 2463" d="M-415.864,1867.659V1848.64l16.016-24.911,50.465,16.534h154.028l47.43-16.534,16.059,24.911,2.336,19.018-51.5,13.9H-362.823Z" transform="translate(421.161 -1722.626)" fill="#d8a901"/>
        <path id="Path_2464" data-name="Path 2464" d="M-402.4,1830.546l-6.566,9.889v18.039l38.788,8.74,21.516-1.925-5.549-17.671Z" transform="translate(424.925 -1717.101)" fill="#fff" stroke="#fff" stroke-width="1"/>
        <path id="Path_2465" data-name="Path 2465" d="M-355.222,1830.546l6.566,9.889v18.039l-38.788,8.74-21.516-1.925,5.549-17.671Z" transform="translate(628.945 -1717.101)" fill="#fff" stroke="#fff" stroke-width="1"/>
        <path id="Path_2466" data-name="Path 2466" d="M-373.3,1841.323h153.773l-5.141,18.337H-367.7Z" transform="translate(444.373 -1711.223)"/>
        <path id="Path_2468" data-name="Path 2468" d="M-370.752,1765.866l-21.741,62.2h209l-22.768-62.2Z" transform="translate(433.906 -1746.191)" stroke="#707070" stroke-width="1"/>
        <path id="Path_2469" data-name="Path 2469" d="M-387.538,1810.583h-5.432l1.116-12.645-9.949-2.591-17.49,4.607,2.609,14.094,25.972,5.755Z" transform="translate(419.292 -1736.295)"/>
        <path id="Path_2470" data-name="Path 2470" d="M-419.292,1810.3h5.332l-1.1-12.412,9.766-2.543,17.168,4.522-2.561,13.834-25.495,5.649Z" transform="translate(679.755 -1736.071)"/>
        <path id="Path_2471" data-name="Path 2471" d="M-414.47,1893.318v29.957s1.658,9.111,14.778,9.377,22.246-4.17,22.334-9.377,0-22.608,0-22.608Z" transform="translate(421.921 -1682.868)"/>
        <path id="Path_2472" data-name="Path 2472" d="M-377.319,1893.318v29.957s-1.658,9.111-14.778,9.377-22.246-4.17-22.334-9.377,0-21.748,0-21.748Z" transform="translate(666.147 -1682.868)"/>
      </g>
    </g>
  </g>
</svg>
