<svg xmlns="http://www.w3.org/2000/svg" width="319.414" height="413.194" viewBox="0 0 319.414 413.194">
  <g id="Group_3019" data-name="Group 3019" transform="translate(-1299.772 -2236.399)">
    <rect id="Rectangle_1415" data-name="Rectangle 1415" width="319.414" height="413.194" transform="translate(1299.772 2236.399)" fill="#191919"/>
    <g id="Group_2670" data-name="Group 2670" transform="translate(1299.919 2332.794)">
      <g id="Group_2666" data-name="Group 2666" transform="translate(131.93 192.556)">
        <path id="Path_2552" data-name="Path 2552" d="M416.409,358.646a6.5,6.5,0,0,1-6.876-6.876V331.143a6.876,6.876,0,0,1,13.751,0V351.77a6.5,6.5,0,0,1-6.876,6.876" transform="translate(-388.906 -324.267)" fill="#cbd4d8"/>
        <path id="Path_2553" data-name="Path 2553" d="M411.437,404.873a27.584,27.584,0,0,1-27.5-27.5,6.876,6.876,0,0,1,13.751,0,13.752,13.752,0,1,0,13.752-13.752,6.876,6.876,0,1,1,0-13.751,27.5,27.5,0,0,1,0,55.006" transform="translate(-383.934 -329.24)" fill="#cbd4d8"/>
      </g>
      <path id="Path_2554" data-name="Path 2554" d="M428.5,322.855H401V314.6a46.3,46.3,0,0,1,13.752-33,46.306,46.306,0,0,1,13.752,33v8.251Z" transform="translate(-255.319 -123.423)" fill="#2c3c42"/>
      <path id="Path_2555" data-name="Path 2555" d="M416.409,266.928a6.5,6.5,0,0,1-6.876-6.876v-82.51a6.876,6.876,0,1,1,13.751,0v82.51a6.5,6.5,0,0,1-6.876,6.876" transform="translate(-256.977 -101.876)" fill="#51656b"/>
      <path id="Path_2563" data-name="Path 2563" d="M209.952,154.092h215.9l-27.5-55.007h-188.4Zm226.9,13.751H203.077a6.5,6.5,0,0,1-6.876-6.876V92.21a6.5,6.5,0,0,1,6.876-6.876h199.4q4.125,0,6.188,4.125l34.379,68.758c1.375,2.063.687,4.813,0,6.876a10.241,10.241,0,0,1-6.189,2.75Z" transform="translate(-196.201 -85.301)" fill="#f4ba48"/>
      <g id="Group_2669" data-name="Group 2669" transform="translate(6.842 0)">
        <path id="Path_2565" data-name="Path 2565" d="M376.621,167.835a6.254,6.254,0,0,1-5.5-2.75L321.614,103.2l-49.506,61.882a7.156,7.156,0,0,1-11,0L206.1,96.327c-2.063-2.75-2.063-7.564,1.375-9.626,2.75-2.063,7.564-2.063,9.626,1.375l49.506,61.882,49.506-61.882a7.156,7.156,0,0,1,11,0l55.007,68.758c2.063,2.75,2.063,7.564-1.375,9.626a7.372,7.372,0,0,1-4.125,1.375" transform="translate(-204.693 -85.293)" fill="#f4ba48"/>
        <path id="Path_2566" data-name="Path 2566" d="M211.652,167.884a9.766,9.766,0,0,1-4.125-1.375,7.4,7.4,0,0,1-1.375-9.626l55.007-68.758a7.156,7.156,0,0,1,11,0l49.506,61.882,49.506-61.882a6.876,6.876,0,0,1,11,8.251l-55.007,68.758a7.156,7.156,0,0,1-11,0l-49.506-61.882-49.506,61.882a6.253,6.253,0,0,1-5.5,2.751" transform="translate(-204.743 -85.342)" fill="#f4ba48"/>
        <path id="Path_2567" data-name="Path 2567" d="M416.485,173.388a7.366,7.366,0,0,1-4.126-1.375c-2.75-2.75-3.438-6.876-.687-9.626l38.5-46.068c2.75-2.75,6.876-3.438,9.626-.687s3.438,6.876.687,9.626l-38.5,46.068a7.807,7.807,0,0,1-5.5,2.063" transform="translate(-244.556 -90.846)" fill="#f4ba48"/>
      </g>
    </g>
  </g>
</svg>
