<svg xmlns="http://www.w3.org/2000/svg" xmlns:xlink="http://www.w3.org/1999/xlink" width="140.879" height="43.703" viewBox="0 0 140.879 43.703"><defs><linearGradient id="a" x1="1.729" y1="1.226" x2="1.762" y2="1.207" gradientUnits="objectBoundingBox"><stop offset="0" stop-opacity="0.6"/><stop offset="0.021" stop-opacity="0.588"/><stop offset="1" stop-opacity="0.102"/></linearGradient></defs><g transform="translate(-310 -46)"><g transform="translate(275.791 29.183)"><path d="M362.029,104.512a9.062,9.062,0,0,0-4.38-2.792,10.813,10.813,0,0,0-2.362-.319,8.876,8.876,0,1,0,7.4,13.762l-1.775-1.055a6.807,6.807,0,0,1-11.837-1.031L363.2,106.24A8.366,8.366,0,0,0,362.029,104.512Zm-13.508,6.541a6.8,6.8,0,0,1,11.566-5.6Z" transform="translate(-242.811 -68.116)"/><path d="M608.15,104.512a9.062,9.062,0,0,0-4.38-2.792,10.813,10.813,0,0,0-2.362-.319,8.876,8.876,0,1,0,7.4,13.762l-1.776-1.055a6.807,6.807,0,0,1-11.837-1.031l14.115-6.835A8.368,8.368,0,0,0,608.15,104.512Zm-13.508,6.541a6.8,6.8,0,0,1,11.566-5.6Z" transform="translate(-434.227 -68.116)"/><path d="M284.083,83.881h0a8.554,8.554,0,0,0-1.793-2.861,8.027,8.027,0,0,0-5.929-2.607,7.986,7.986,0,0,0-3.23.668,8.1,8.1,0,0,0-2.691,1.93q-.141.141-.294.32V71.806h-2.155V87.629a9.077,9.077,0,0,0,.7,3.182,8.852,8.852,0,0,0,1.745,2.688,8.3,8.3,0,0,0,2.7,1.953,7.945,7.945,0,0,0,6.448,0,8.254,8.254,0,0,0,2.711-1.95,8.554,8.554,0,0,0,1.8-2.864,9.552,9.552,0,0,0,0-6.756Zm-1.538,3.378a7,7,0,0,1-.838,3.368,6.588,6.588,0,0,1-2.253,2.452,5.65,5.65,0,0,1-3.094.9,5.72,5.72,0,0,1-3.111-.9,6.539,6.539,0,0,1-2.266-2.451,6.994,6.994,0,0,1-.838-3.368,6.908,6.908,0,0,1,.837-3.352,6.577,6.577,0,0,1,2.267-2.438,5.771,5.771,0,0,1,6.191,0,6.585,6.585,0,0,1,2.267,2.438A6.916,6.916,0,0,1,282.545,87.259Z" transform="translate(-181.82 -45.1)"/><path d="M440.438,84.084a8.039,8.039,0,0,0-.743-2.157,6.96,6.96,0,0,0-2.342-2.672,7.2,7.2,0,0,0-4.148-1.086,7.017,7.017,0,0,0-5.262,2.012v-8.59h-2.155V95.92h2.155V85.586a7.192,7.192,0,0,1,.144-1.132,5.685,5.685,0,0,1,.563-1.6,5.368,5.368,0,0,1,9.111,0,5.7,5.7,0,0,1,.563,1.6,7.58,7.58,0,0,1,.144,1.132V95.92h2.155V85.586A9.518,9.518,0,0,0,440.438,84.084Z" transform="translate(-304.543 -44.932)"/><g transform="translate(138.09 26.706)"><rect width="2.155" height="17.751" transform="translate(0.566 6.578)"/><path d="M504.368,72.276h0a1.565,1.565,0,0,0-1.143-.469,1.613,1.613,0,0,0-1.154.465,1.539,1.539,0,0,0-.489,1.148,1.654,1.654,0,0,0,1.643,1.643,1.539,1.539,0,0,0,1.148-.489,1.613,1.613,0,0,0,.465-1.154A1.565,1.565,0,0,0,504.368,72.276Z" transform="translate(-501.581 -71.806)"/></g><path d="M536.057,101.4l-6.417,15.137L523.194,101.4h-2.362l7.49,17.549.087.2h2.465l7.515-17.751Z" transform="translate(-378.463 -68.116)"/><g transform="translate(34.209 16.818)"><path d="M52.205,57.76,35.364,48.049a2.309,2.309,0,0,1-1.154-2.038V26.654a2.457,2.457,0,0,1,1.154-2.034l16.841-9.715a2.467,2.467,0,0,1,2.377,0L71.358,24.62a2.308,2.308,0,0,1,1.154,2.037V46.35a1.83,1.83,0,0,1-.951,1.63L54.516,57.76A2.333,2.333,0,0,1,52.205,57.76Z" transform="translate(-34.209 -14.449)" fill="#fcb000"/><path d="M34.21,116.527v11.885a1.83,1.83,0,0,0,.951,1.63l10.258,5.91V123.046Z" transform="translate(-34.21 -96.578)" fill="#009688"/><path d="M112.241,35.737h0l-9.576-5.566-9.577,5.5V24.6l-9.3-5.3h0l-.273-.205,8.625-5.024a1.777,1.777,0,0,1,1.83,0l17.322,10.052a1.883,1.883,0,0,1,.883,1.561V35.736Z" transform="translate(-73.937 -13.817)" fill="#92c139"/><path d="M156.87,65.539l-6.657,3.872A1.22,1.22,0,0,0,149.6,70.5v7.674a1.286,1.286,0,0,0,.61,1.086l6.656,3.872a1.44,1.44,0,0,0,1.29,0l6.655-3.871a1.22,1.22,0,0,0,.61-1.087V70.5a1.285,1.285,0,0,0-.61-1.086l-6.655-3.872A1.44,1.44,0,0,0,156.87,65.539Z" transform="translate(-127.19 -55.371)" fill="#fefd3a"/><path d="M98.9,164.462l-6.451-3.737a1.083,1.083,0,0,1-.544-.95V151.9a1.083,1.083,0,0,1,.544-.951l6.792-3.939a1.165,1.165,0,0,1,1.154,0l6.792,3.939a1.083,1.083,0,0,1,.544.951v7.879a1.083,1.083,0,0,1-.544.951l-6.451,3.736A1.777,1.777,0,0,1,98.9,164.462Z" transform="translate(-80.699 -121.015)" fill="#df4e00"/><path d="M89.766,61.612h0l-9.03-5.229L69.527,62.834V75.808l9.033,5.229h0l11.214,6.451,10.251-5.909a1.883,1.883,0,0,0,.883-1.562V68.065Z" transform="translate(-62.667 -48.116)" opacity="0.3" fill="url(#a)"/><path d="M56.624,55.708V44.843a1.656,1.656,0,0,0-.951-1.562L46.3,37.847a1.776,1.776,0,0,0-1.83,0l-9.375,5.433a1.882,1.882,0,0,0-.883,1.563v10.8a1.656,1.656,0,0,0,.951,1.561l9.372,5.433a1.778,1.778,0,0,0,1.831,0L55.738,57.2A1.688,1.688,0,0,0,56.624,55.708Z" transform="translate(-34.211 -32.975)" fill="#2484ba"/></g></g></g></svg>